<svg xmlns="http://www.w3.org/2000/svg" width="18" height="15.6" viewBox="0 0 18 15.6">
  <g id="组_4678" data-name="组 4678" transform="translate(-67.108 -125.963)">
    <path id="路径_2912" data-name="路径 2912" class="cls-1" d="M84.162,130.707v-1.261a2.245,2.245,0,0,0-1.981-2.294H76.472l-.234-.448a1.348,1.348,0,0,0-1.207-.74H68.944a1.877,1.877,0,0,0-1.837,1.919v11.762a1.883,1.883,0,0,0,1.837,1.919H83.27a1.877,1.877,0,0,0,1.837-1.919v-7.22a2.3,2.3,0,0,0-.946-1.718Zm-1.981-2.4c.4,0,.846.612.846,1.142v.8H78.093L77.084,128.3h5.1Zm1.8,11.341a.74.74,0,0,1-.7.768H68.944a.74.74,0,0,1-.7-.768V127.883a.74.74,0,0,1,.7-.768h6.087a.216.216,0,0,1,.2.128l2.008,3.847a.562.562,0,0,0,.5.311h5.223a1.31,1.31,0,0,1,1.018,1.033v7.21Z" transform="translate(0 0)"/>
    <path id="路径_2913" data-name="路径 2913" class="cls-1" d="M339.3,395.533h-1.75v-1.75a.437.437,0,0,0-.875,0v1.75h-1.75a.437.437,0,1,0,0,.875h1.75v1.75a.437.437,0,1,0,.875,0v-1.75h1.75a.437.437,0,1,0,0-.875Z" transform="translate(-261.006 -261.096)"/>
  </g>
</svg>
