<svg xmlns="http://www.w3.org/2000/svg" width="20" height="20" viewBox="0 0 20 20">
  <defs>
    <style>
      .cls-1 {
        fill: #f5ac40;
      }
    </style>
  </defs>
  <path id="多边形_19" data-name="多边形 19" class="cls-1" d="M9.11,1.74a1,1,0,0,1,1.78,0l2.137,4.177a1,1,0,0,0,.7.527l4.516.861A1,1,0,0,1,18.8,8.96L15.57,12.51a1,1,0,0,0-.252.8l.621,4.815a1,1,0,0,1-1.444,1.02L10.452,17.1a1,1,0,0,0-.9,0L5.5,19.146a1,1,0,0,1-1.444-1.02l.621-4.815a1,1,0,0,0-.252-.8L1.2,8.96A1,1,0,0,1,1.754,7.3L6.27,6.444a1,1,0,0,0,.7-.527Z"/>
</svg>
