<svg xmlns="http://www.w3.org/2000/svg" width="20" height="20" viewBox="0 0 20 20">
  <defs>
    <style>
      .cls-1 {
        fill: #fff;
      }

      .cls-2, .cls-3 {
        stroke: none;
      }

      .cls-3 {
        fill: #c0c4cc;
      }
    </style>
  </defs>
  <g id="多边形_19" data-name="多边形 19" class="cls-1">
    <path class="cls-2" d="M 14.94713020324707 18.75617980957031 C 14.87026977539063 18.75618934631348 14.79419994354248 18.73740005493164 14.72101974487305 18.70033073425293 L 10.67778968811035 16.6523494720459 C 10.46872997283936 16.54644966125488 10.23435020446777 16.49047088623047 10 16.49047088623047 C 9.765649795532227 16.49047088623047 9.531259536743164 16.54644966125488 9.322199821472168 16.6523494720459 L 5.278989791870117 18.70033073425293 C 5.205820083618164 18.73739051818848 5.129730224609375 18.75617980957031 5.052840232849121 18.75617980957031 C 4.911910057067871 18.75617980957031 4.770349979400635 18.69087982177734 4.674160003662109 18.58148956298828 C 4.607550144195557 18.50573921203613 4.533170223236084 18.37638092041016 4.557159900665283 18.19034004211426 L 5.178140163421631 13.37487983703613 C 5.234519958496094 12.93766021728516 5.096739768981934 12.49987030029297 4.800119876861572 12.17374992370605 L 1.571179986000061 8.623649597167969 C 1.393219947814941 8.428000450134277 1.438889980316162 8.212499618530273 1.466779947280884 8.12893009185791 C 1.494680047035217 8.045350074768066 1.587610006332397 7.845620155334473 1.847409963607788 7.796080112457275 L 6.36338996887207 6.935009956359863 C 6.821209907531738 6.847720146179199 7.205540180206299 6.559679985046387 7.417819976806641 6.144760131835938 L 9.554869651794434 1.967769980430603 C 9.64210033416748 1.797289967536926 9.808500289916992 1.695510029792786 10 1.695510029792786 C 10.19149971008301 1.695510029792786 10.35789966583252 1.797289967536926 10.44513034820557 1.967769980430603 L 12.58218955993652 6.14477014541626 C 12.79446983337402 6.559689998626709 13.17879009246826 6.847720146179199 13.63661003112793 6.935009956359863 L 18.15258979797363 7.796080112457275 C 18.41238975524902 7.845620155334473 18.50531959533691 8.045350074768066 18.5332202911377 8.12893009185791 C 18.56110954284668 8.212499618530273 18.60677909851074 8.428000450134277 18.42882919311523 8.623649597167969 L 15.19987964630127 12.17374992370605 C 14.90326023101807 12.49987030029297 14.76548004150391 12.93766021728516 14.82186031341553 13.37487983703613 L 15.44283962249756 18.19034004211426 C 15.46681976318359 18.37632942199707 15.3924503326416 18.50567054748535 15.32583999633789 18.58143043518066 C 15.22964000701904 18.69084930419922 15.08806037902832 18.75617027282715 14.94713020324707 18.75617980957031 Z"/>
    <path class="cls-3" d="M 10 2.195510864257813 C 9.999998092651367 2.195510864257813 9.999996185302734 2.195510864257813 10 2.195499420166016 L 7.862939834594727 6.372500419616699 C 7.579899787902832 6.92572021484375 7.067469596862793 7.309769630432129 6.457039833068848 7.426159858703613 L 1.941059112548828 8.287229537963867 L 5.170000076293945 11.83732032775879 C 5.565509796142578 12.27215957641602 5.74921989440918 12.85589981079102 5.674030303955078 13.43881988525391 L 5.053059577941895 18.25428009033203 L 9.096269607543945 16.20628929138184 C 9.375020027160645 16.06509971618652 9.687529563903809 15.99046993255615 10 15.99046993255615 C 10.31247043609619 15.99046993255615 10.62497043609619 16.06509971618652 10.90371990203857 16.20628929138184 L 14.94692420959473 18.2542724609375 C 14.94692802429199 18.25426864624023 14.94693183898926 18.25426483154297 14.94693946838379 18.2542896270752 L 14.32596015930176 13.43881988525391 C 14.25078964233398 12.85586929321289 14.43449974060059 12.27215003967285 14.82999038696289 11.83732986450195 L 18.05894088745117 8.287230491638184 C 18.05894088745117 8.287230491638184 18.05894088745117 8.287230491638184 18.05894088745117 8.287229537963867 L 13.54296016693115 7.426159858703613 C 12.93253993988037 7.309769630432129 12.42011070251465 6.925729751586914 12.13706016540527 6.372500419616699 L 10.00000476837158 2.195510864257813 C 10.00000381469727 2.195510864257813 10.00000190734863 2.195510864257813 10 2.195510864257813 M 10 1.195507049560547 C 10.35225963592529 1.195507049560547 10.7045202255249 1.37701416015625 10.89025020599365 1.740030288696289 L 13.02730941772461 5.917030334472656 C 13.16781997680664 6.191659927368164 13.42722988128662 6.386079788208008 13.73025989532471 6.443860054016113 L 18.24624061584473 7.304929733276367 C 19.01383018493652 7.451279640197754 19.32449913024902 8.382009506225586 18.79871940612793 8.960080146789551 L 15.56976985931396 12.51017951965332 C 15.37236976623535 12.72721004486084 15.28022956848145 13.01996994018555 15.31774997711182 13.3109302520752 L 15.93873023986816 18.12639045715332 C 16.02005004882813 18.75704574584961 15.5161018371582 19.25618362426758 14.94716167449951 19.25618362426758 C 14.79779052734375 19.25618362426758 14.64400672912598 19.2218074798584 14.49507999420166 19.14636993408203 L 10.45186042785645 17.09838104248047 C 10.30982971191406 17.02643966674805 10.15491485595703 16.99047088623047 9.999999046325684 16.99047088623047 C 9.84508228302002 16.99047088623047 9.690164566040039 17.02643966674805 9.548130035400391 17.09838104248047 L 5.50492000579834 19.14636993408203 C 5.356036186218262 19.2217845916748 5.202167510986328 19.25618362426758 5.052837371826172 19.25618362426758 C 4.483840942382813 19.25618362426758 3.979936599731445 18.75709533691406 4.061269760131836 18.12639045715332 L 4.682239532470703 13.3109302520752 C 4.719770431518555 13.01996994018555 4.627630233764648 12.72721004486084 4.430230140686035 12.51017951965332 L 1.20128059387207 8.960080146789551 C 0.6755008697509766 8.382009506225586 0.9861698150634766 7.451290130615234 1.753759384155273 7.304929733276367 L 6.269740104675293 6.443860054016113 C 6.572770118713379 6.386079788208008 6.832180023193359 6.191670417785645 6.972689628601074 5.917030334472656 L 9.109749794006348 1.740030288696289 C 9.295479774475098 1.37701416015625 9.647740364074707 1.195507049560547 10 1.195507049560547 Z"/>
  </g>
</svg>
