<svg xmlns="http://www.w3.org/2000/svg" width="22.316" height="24" viewBox="0 0 22.316 24">
  <defs>
    <style>
      .cls-1 {
        fill: #5eaae9;
      }

      .cls-2 {
        fill: #fff;
        font-size: 6px;
        font-family: PingFangSC-Bold, PingFang SC;
        font-weight: 700;
      }
    </style>
  </defs>
  <g id="组_4675" data-name="组 4675" transform="translate(-25.266 -423)">
    <path id="路径_2902" data-name="路径 2902" class="cls-1" d="M111.94,49.741H98.477c-.514,0-1.226-.847-1.226-1.444V42.072a1.475,1.475,0,0,1,1.226-1.43H111.94c.514,0,1.226.848,1.226,1.43V48.3c0,.583-.7,1.443-1.226,1.443Zm-3.925-12.151h-4.423c-.477,0-1.47-.635-1.47-.98v-4.9H93.777a1.383,1.383,0,0,0-1.47,1.47V51.3a1.45,1.45,0,0,0,1.47,1.47h12.755A1.475,1.475,0,0,0,108,51.3v-.98h1.47v1.47c0,1.311-.583,2.45-1.947,2.45h-14.2a2.438,2.438,0,0,1-2.477-2.384V32.623a2.438,2.438,0,0,1,2.477-2.384h10.384l5.775,5.881a7.774,7.774,0,0,0,0,1.47v1.47h-1.47V37.59Zm-4.423-5.39v3.92h3.92l-3.92-3.921Z" transform="translate(-65.584 392.762)"/>
    <text id="PPT" class="cls-2" transform="translate(33.734 439.947)"><tspan x="0" y="0">PPT</tspan></text>
  </g>
</svg>
