<svg id="组_1742" data-name="组 1742" xmlns="http://www.w3.org/2000/svg" width="20" height="20" viewBox="0 0 20 20">
  <defs>
    <style>
      .cls-1 {
        fill: #fff;
      }

      .cls-2 {
        fill: #8cc8fe;
      }

      .cls-3 {
        fill: #0082ef;
      }

      .cls-4 {
        fill: #dfe9f5;
      }
    </style>
  </defs>
  <path id="路径_1516" data-name="路径 1516" class="cls-1" d="M0,0H20V20H0Z"/>
  <path id="路径_1517" data-name="路径 1517" class="cls-2" d="M214.873,595.937m.836.836h0a1.045,1.045,0,0,1,0,1.672l-1.667,1.667a1.045,1.045,0,0,1-1.672,0h0a1.045,1.045,0,0,1,0-1.672l1.667-1.667A1.045,1.045,0,0,1,215.709,596.773Z" transform="translate(-207.881 -584.516)"/>
  <path id="路径_1518" data-name="路径 1518" class="cls-3" d="M122.247,118.7a5.433,5.433,0,0,1-.691,6.836l-.76.76-9.217-9.217.76-.76a5.433,5.433,0,0,1,6.836-.691l1.61-1.61-.386-.386a1.627,1.627,0,0,1,2.3-2.3l3.844,3.844a1.627,1.627,0,1,1-2.3,2.3l-.386-.386-1.61,1.61Z" transform="translate(-109.25 -108.544)"/>
  <path id="路径_1519" data-name="路径 1519" class="cls-4" d="M242.484,389.782a.591.591,0,1,1-.629-1,3.722,3.722,0,0,1,3.954-.154.591.591,0,0,1-.559,1.042,2.546,2.546,0,0,0-2.765.114Z" transform="translate(-236.947 -380.598)"/>
</svg>
