<svg xmlns="http://www.w3.org/2000/svg" width="14" height="13.076" viewBox="0 0 14 13.076">
  <defs>
    <style>
      .cls-1 {
        fill: #c0c4cc;
      }
    </style>
  </defs>
  <path id="路径_2917" data-name="路径 2917" class="cls-1" d="M124.284,143.568h5.93a.506.506,0,0,0,0-1.012h-5.93a.506.506,0,1,0,0,1.012Zm5.928,1.822h-5.928a.506.506,0,1,0,0,1.012h5.93a.506.506,0,1,0,0-1.012Zm-8.992-3.91h-2.993a1.509,1.509,0,0,0-1.507,1.507v2.993a1.509,1.509,0,0,0,1.507,1.507h2.993a1.509,1.509,0,0,0,1.507-1.507v-2.993A1.509,1.509,0,0,0,121.22,141.479Zm.56,4.5a.561.561,0,0,1-.56.56h-2.993a.561.561,0,0,1-.56-.56v-2.993a.561.561,0,0,1,.56-.56h2.993a.561.561,0,0,1,.56.56Zm8.432,3.647h-5.928a.506.506,0,1,0,0,1.012h5.93a.506.506,0,1,0,0-1.012Zm0,2.834h-5.928a.506.506,0,1,0,0,1.012h5.93a.506.506,0,1,0,0-1.012Zm-8.992-3.912h-2.993a1.509,1.509,0,0,0-1.507,1.507v2.993a1.509,1.509,0,0,0,1.507,1.507h2.993a1.509,1.509,0,0,0,1.507-1.507v-2.993A1.509,1.509,0,0,0,121.22,148.548Zm.56,4.5a.561.561,0,0,1-.56.56h-2.993a.561.561,0,0,1-.56-.56v-2.993a.561.561,0,0,1,.56-.56h2.993a.561.561,0,0,1,.56.56Z" transform="translate(-116.72 -141.479)"/>
</svg>
