<svg xmlns="http://www.w3.org/2000/svg" width="31.068" height="36" viewBox="0 0 31.068 36">
  <defs>
    <style>
      .cls-1 {
        fill: #f35e5e;
      }

      .cls-2 {
        fill: #ffb4a4;
      }

      .cls-3 {
        fill: #fff;
      }
    </style>
  </defs>
  <g id="组_4604" data-name="组 4604" transform="translate(12531 910.984)">
    <g id="组_4596" data-name="组 4596" transform="translate(-12601.144 -910.984)">
      <path id="路径_2722" data-name="路径 2722" class="cls-1" d="M71.476,0a1.467,1.467,0,0,0-1.332,1.368V34.632A1.471,1.471,0,0,0,71.512,36H99.844a1.471,1.471,0,0,0,1.368-1.368V7.884L93.31,0Z"/>
      <path id="路径_2723" data-name="路径 2723" class="cls-2" d="M729.088,0V6.257a1.458,1.458,0,0,0,1.356,1.356H736.7Z" transform="translate(-635.506)"/>
    </g>
    <g id="组_4598" data-name="组 4598" transform="translate(-12653.501 -982.647)">
      <path id="路径_2736" data-name="路径 2736" class="cls-3" d="M343.04,424.229m1.016,0h10.03a.9.9,0,0,1,1.016,1.016v7.6a.9.9,0,0,1-1.016,1.016h-10.03a.9.9,0,0,1-1.016-1.016v-7.6A.9.9,0,0,1,344.056,424.229Z" transform="translate(-212.61 -337.552)"/>
      <path id="路径_2737" data-name="路径 2737" class="cls-3" d="M573.7,460.9l4.248,2.449a1.016,1.016,0,0,0,1.524-.874v-4.9a1.016,1.016,0,0,0-1.524-.884l-4.248,2.459a1.016,1.016,0,0,0,0,1.748Z" transform="translate(-433.181 -368.534)"/>
    </g>
  </g>
</svg>
