<svg xmlns="http://www.w3.org/2000/svg" width="31.068" height="36" viewBox="0 0 31.068 36">
  <defs>
    <style>
      .cls-1 {
        fill: #5b7dff;
      }

      .cls-2 {
        fill: #9fb6ff;
      }

      .cls-3 {
        fill: #fff;
      }
    </style>
  </defs>
  <g id="组_4605" data-name="组 4605" transform="translate(12531 961.984)">
    <g id="组_4595" data-name="组 4595" transform="translate(-12601.144 -961.984)">
      <path id="路径_2722" data-name="路径 2722" class="cls-1" d="M71.476,0a1.467,1.467,0,0,0-1.332,1.368V34.632A1.471,1.471,0,0,0,71.512,36H99.844a1.471,1.471,0,0,0,1.368-1.368V7.884L93.31,0Z"/>
      <path id="路径_2723" data-name="路径 2723" class="cls-2" d="M729.088,0V6.257a1.458,1.458,0,0,0,1.356,1.356H736.7Z" transform="translate(-635.506)"/>
    </g>
    <path id="路径_2750" data-name="路径 2750" class="cls-3" d="M317.414,268.829a5.164,5.164,0,0,0-2.506-.625c-2.518,0-4.557,1.676-4.557,3.752s2.04,3.752,4.557,3.752,4.557-1.689,4.557-3.752v-10.92a3.564,3.564,0,0,0,3.543-.325c.649-.375.365-.763-.011-.763a8.9,8.9,0,0,1-4.888-1.589c-.455-.288-.7-.2-.7.212v10.259Z" transform="translate(-12832.818 -1209.061)"/>
  </g>
</svg>
