<svg xmlns="http://www.w3.org/2000/svg" width="31.068" height="36" viewBox="0 0 31.068 36">
  <defs>
    <style>
      .cls-1 {
        fill: #eb4b37;
      }

      .cls-2 {
        fill: #ff8f8f;
      }

      .cls-3 {
        fill: #fff;
      }
    </style>
  </defs>
  <g id="组_4608" data-name="组 4608" transform="translate(12530.923 1101.984)">
    <g id="组_4583" data-name="组 4583" transform="translate(-12601.067 -1101.984)">
      <path id="路径_2722" data-name="路径 2722" class="cls-1" d="M71.476,0a1.467,1.467,0,0,0-1.332,1.368V34.632A1.471,1.471,0,0,0,71.512,36H99.844a1.471,1.471,0,0,0,1.368-1.368V7.884L93.31,0Z"/>
      <path id="路径_2723" data-name="路径 2723" class="cls-2" d="M729.088,0V6.257a1.458,1.458,0,0,0,1.356,1.356H736.7Z" transform="translate(-635.506)"/>
      <path id="路径_2724" data-name="路径 2724" class="cls-3" d="M276.655,340.368a6.372,6.372,0,0,1-3.731-1.443,35.324,35.324,0,0,0-5.948,1.79c-1.533,2.59-2.974,3.876-4.267,3.876a1.557,1.557,0,0,1-.757-.209,1.328,1.328,0,0,1-.831-1.286c0-.435.074-1.582,4.877-3.511a34.679,34.679,0,0,0,2.679-5.805c-.61-1.147-1.9-3.876-1-5.319a1.8,1.8,0,0,1,1.533-.782,1.494,1.494,0,0,1,1.293.643c.683.869.61,2.659-.222,5.232a12.37,12.37,0,0,0,3.122,3.737,16.789,16.789,0,0,1,3.122-.365c2.365.07,2.679,1.078,2.679,1.721C279.186,340.368,277.5,340.368,276.655,340.368Zm-13.947,2.937.148-.07a3.6,3.6,0,0,0,1.681-1.286A3.684,3.684,0,0,0,262.709,343.306Zm6.632-14.131h-.148a.283.283,0,0,0-.222.069,3.205,3.205,0,0,0,.314,2.364A4.04,4.04,0,0,0,269.34,329.175Zm.3,6.813v.139l-.074-.07a31.985,31.985,0,0,1-1.533,3.233l.074-.07v.07a27.554,27.554,0,0,1,3.436-.939l-.074-.07h.148A16.235,16.235,0,0,1,269.636,335.988Zm6.872,2.52a8.065,8.065,0,0,0-1.293.07,4.116,4.116,0,0,0,1.533.365,2.339,2.339,0,0,0,1-.07C277.653,338.787,277.5,338.508,276.507,338.508Z" transform="translate(-184.493 -315.785)"/>
    </g>
  </g>
</svg>
