<svg xmlns="http://www.w3.org/2000/svg" width="36" height="36" viewBox="0 0 36 36">
  <defs>
    <style>
      .cls-1 {
        fill: #f5ac40;
      }

      .cls-2 {
        fill: #fff;
      }
    </style>
  </defs>
  <g id="组_4579" data-name="组 4579" transform="translate(-533 -1911)">
    <rect id="矩形_2253" data-name="矩形 2253" class="cls-1" width="36" height="36" rx="2" transform="translate(533 1911)"/>
    <path id="路径_2643" data-name="路径 2643" class="cls-2" d="M64.7,156.806v12.082c0,1.127.227,1.342,1.342,1.342H81.255c1.1,0,1.342-.205,1.342-1.342V156.806c0-1.1-.21-1.342-1.342-1.342H66.042C64.932,155.464,64.7,155.658,64.7,156.806ZM80.49,167.1H66.817c1.493-2.18,4.153-5.812,4.827-5.812.653,0,2.872,2.936,3.874,3.969,0,0,1.288-1.723,1.965-1.723S80.468,167.079,80.49,167.1Zm-4.018-7.606a1.65,1.65,0,1,1,1.65,1.65A1.649,1.649,0,0,1,76.471,159.493Zm-3.378-4.837-2.618-.5c-.868-.164-1.212-.105-1.425.5Zm12.329,2.339-2.048-.389c0,.049,0,.1,0,.149v12.15a2.175,2.175,0,0,1-.484,1.638,2.208,2.208,0,0,1-1.616.46H80.042l2.628.5c1.085.205,1.357.049,1.569-1.068l2.254-11.869C86.7,157.483,86.534,157.2,85.422,156.995Z" transform="translate(475.729 1767.103)"/>
  </g>
</svg>
