<svg xmlns="http://www.w3.org/2000/svg" width="31.068" height="36" viewBox="0 0 31.068 36">
  <defs>
    <style>
      .cls-1 {
        fill: #4db784;
      }

      .cls-2 {
        fill: #bee5ca;
      }

      .cls-3 {
        fill: #fff;
      }
    </style>
  </defs>
  <g id="组_4606" data-name="组 4606" transform="translate(12531 1008.984)">
    <g id="组_4593" data-name="组 4593" transform="translate(-12601.144 -1008.984)">
      <path id="路径_2722" data-name="路径 2722" class="cls-1" d="M71.476,0a1.467,1.467,0,0,0-1.332,1.368V34.632A1.471,1.471,0,0,0,71.512,36H99.844a1.471,1.471,0,0,0,1.368-1.368V7.884L93.31,0Z"/>
      <path id="路径_2723" data-name="路径 2723" class="cls-2" d="M729.088,0V6.257a1.458,1.458,0,0,0,1.356,1.356H736.7Z" transform="translate(-635.506)"/>
    </g>
    <path id="路径_2749" data-name="路径 2749" class="cls-3" d="M303.1,364.844l5.58-6.834-5.059-6.267h3.85l3.273,4.208,3.2-4.208h3.813l-5.077,6.356,5.579,6.729h-3.98l-3.589-4.521-3.627,4.536Z" transform="translate(-12826.175 -1349.176)"/>
  </g>
</svg>
