<svg xmlns="http://www.w3.org/2000/svg" width="31.068" height="36" viewBox="0 0 31.068 36">
  <defs>
    <style>
      .cls-1 {
        fill: #2c97ff;
      }

      .cls-2 {
        fill: #a4d2ff;
      }

      .cls-3 {
        fill: #fff;
      }
    </style>
  </defs>
  <g id="组_4610" data-name="组 4610" transform="translate(12531 753.984)">
    <g id="组_4602" data-name="组 4602" transform="translate(-12601.144 -753.984)">
      <path id="路径_2722" data-name="路径 2722" class="cls-1" d="M71.476,0a1.467,1.467,0,0,0-1.332,1.368V34.632A1.471,1.471,0,0,0,71.512,36H99.844a1.471,1.471,0,0,0,1.368-1.368V7.884L93.31,0Z"/>
      <path id="路径_2723" data-name="路径 2723" class="cls-2" d="M729.088,0V6.257a1.458,1.458,0,0,0,1.356,1.356H736.7Z" transform="translate(-635.506)"/>
    </g>
    <path id="路径_2751" data-name="路径 2751" class="cls-3" d="M288.425,338.749H280.36a1.145,1.145,0,1,1,0-2.291h8.064a1.146,1.146,0,0,1,0,2.291Z" transform="translate(-12803.406 -1078.648)"/>
    <path id="路径_2752" data-name="路径 2752" class="cls-3" d="M295.886,683.474H280.36a1.145,1.145,0,0,1,0-2.291h15.526a1.168,1.168,0,0,1,1.145,1.145A1.145,1.145,0,0,1,295.886,683.474Z" transform="translate(-12803.55 -1411.274)"/>
    <path id="路径_2753" data-name="路径 2753" class="cls-3" d="M295.886,511.111H280.36a1.146,1.146,0,0,1,0-2.291h15.526a1.168,1.168,0,0,1,1.145,1.146A1.145,1.145,0,0,1,295.886,511.111Z" transform="translate(-12803.55 -1244.961)"/>
  </g>
</svg>
