<svg xmlns="http://www.w3.org/2000/svg" width="31.068" height="36" viewBox="0 0 31.068 36">
  <defs>
    <style>
      .cls-1 {
        fill: #2c97ff;
      }

      .cls-2 {
        fill: #a4d2ff;
      }

      .cls-3 {
        fill: #fff;
      }
    </style>
  </defs>
  <g id="组_4607" data-name="组 4607" transform="translate(12531 1055.984)">
    <g id="组_4592" data-name="组 4592" transform="translate(-12601.144 -1055.984)">
      <path id="路径_2722" data-name="路径 2722" class="cls-1" d="M71.476,0a1.467,1.467,0,0,0-1.332,1.368V34.632A1.471,1.471,0,0,0,71.512,36H99.844a1.471,1.471,0,0,0,1.368-1.368V7.884L93.31,0Z"/>
      <path id="路径_2723" data-name="路径 2723" class="cls-2" d="M729.088,0V6.257a1.458,1.458,0,0,0,1.356,1.356H736.7Z" transform="translate(-635.506)"/>
    </g>
    <path id="路径_2748" data-name="路径 2748" class="cls-3" d="M318.684,491.934a.811.811,0,0,1-.724-.318l-5.777-6.271-5.777,6.342a1.012,1.012,0,0,1-1.131.247,1.035,1.035,0,0,1-.636-.972V480.274a1.042,1.042,0,0,1,2.085,0v7.95l4.734-5.211a.845.845,0,0,1,.724-.318.811.811,0,0,1,.724.318l4.734,5.211v-7.861a1.042,1.042,0,1,1,2.085,0v10.6a1.081,1.081,0,0,1-.636.972Z" transform="translate(-12827.64 -1519.474)"/>
  </g>
</svg>
