<svg xmlns="http://www.w3.org/2000/svg" width="31.068" height="36" viewBox="0 0 31.068 36">
  <defs>
    <style>
      .cls-1 {
        fill: #f4c446;
      }

      .cls-2 {
        fill: #ffeaa4;
      }

      .cls-3 {
        fill: #fff;
      }
    </style>
  </defs>
  <g id="组_4603" data-name="组 4603" transform="translate(12531 861.984)">
    <g id="组_4599" data-name="组 4599" transform="translate(-12601.144 -861.984)">
      <path id="路径_2722" data-name="路径 2722" class="cls-1" d="M71.476,0a1.467,1.467,0,0,0-1.332,1.368V34.632A1.471,1.471,0,0,0,71.512,36H99.844a1.471,1.471,0,0,0,1.368-1.368V7.884L93.31,0Z"/>
      <path id="路径_2723" data-name="路径 2723" class="cls-2" d="M729.088,0V6.257a1.458,1.458,0,0,0,1.356,1.356H736.7Z" transform="translate(-635.506)"/>
    </g>
    <g id="组_4601" data-name="组 4601" transform="translate(-12652.452 -935.127)">
      <path id="路径_2741" data-name="路径 2741" class="cls-3" d="M447.39,73.143h2.294v2.294H447.39Zm2.284,2.294h2.294v2.294h-2.294Z" transform="translate(-312.938)"/>
      <path id="路径_2742" data-name="路径 2742" class="cls-3" d="M447.39,190.415h2.294v2.294H447.39Zm2.284,2.294h2.294V195h-2.294Z" transform="translate(-312.938 -112.694)"/>
      <path id="路径_2743" data-name="路径 2743" class="cls-3" d="M447.39,307.688h2.294v2.294H447.39Zm2.284,2.294h2.294v2.294h-2.294Zm-2.284,2.294h2.294v2.294H447.39Z" transform="translate(-312.938 -225.389)"/>
      <path id="路径_2744" data-name="路径 2744" class="cls-3" d="M449.674,483.718h2.294v2.294h-2.294Zm-2.284,4.911V493.2a1.142,1.142,0,0,0,1.142,1.142h2.332a1.142,1.142,0,0,0,1.142-1.142v-4.569Zm3.474,4.569h-2.332V490.9h2.332Z" transform="translate(-312.938 -394.547)"/>
    </g>
  </g>
</svg>
