<svg xmlns="http://www.w3.org/2000/svg" width="12.001" height="14" viewBox="0 0 12.001 14">
	<g id="组_4685" data-name="组 4685" transform="translate(-200.6 -150.9)">
		<path id="路径_2914" data-name="路径 2914" class="cls-1" d="M208.988,162.925H202.08a1.493,1.493,0,0,1-1.48-1.5V152.4a1.493,1.493,0,0,1,1.48-1.5h6.908a1.493,1.493,0,0,1,1.48,1.5v9.019A1.493,1.493,0,0,1,208.988,162.925ZM202.08,151.9a.5.5,0,0,0-.494.5v9.017a.5.5,0,0,0,.494.5h6.908a.5.5,0,0,0,.494-.5V152.4a.5.5,0,0,0-.494-.5H202.08Z" transform="translate(0 0)" />
		<path id="路径_2915" data-name="路径 2915" class="cls-1" d="M312.488,291.549h-7.4a.494.494,0,1,1,0-.988h7.4a.494.494,0,0,0,.494-.494v-9.373a.494.494,0,0,1,.988,0v9.375A1.484,1.484,0,0,1,312.488,291.549Zm-3.947-9.869h-3.947a.494.494,0,1,1,0-.988h3.947a.494.494,0,1,1,0,.988Zm.986,2.467h-4.933a.494.494,0,1,1,0-.988h4.933a.494.494,0,0,1,0,.988Z" transform="translate(-101.368 -126.649)" />
		<path id="路径_2916" data-name="路径 2916" class="cls-1" d="M309.528,565.588h-4.933a.494.494,0,0,1,0-.988h4.933a.494.494,0,0,1,0,.988Z" transform="translate(-101.473 -405.694)" />
	</g>
</svg>
