<svg id="组_3067" data-name="组 3067" xmlns="http://www.w3.org/2000/svg" width="10.33" height="16" viewBox="0 0 10.33 16">
  <defs>
    <style>
      .cls-1 {
        fill: #c0c4cc;
      }
    </style>
  </defs>
  <path id="路径_1638" data-name="路径 1638" class="cls-1" d="M182.857,954.88h10.209v1.1H182.857Z" transform="translate(-182.854 -939.98)"/>
  <path id="路径_1639" data-name="路径 1639" class="cls-1" d="M188.3,481.056l4.479-4.406a.718.718,0,0,0,.167-.771.7.7,0,0,0-.638-.452h-8.959a.7.7,0,0,0-.638.452.718.718,0,0,0,.167.771l4.485,4.406a.664.664,0,0,0,.935,0m-5.059,1.938h9.176a.582.582,0,0,1,0,1.164h-9.176a.582.582,0,0,1,0-1.164Z" transform="translate(-182.663 -468.158)"/>
  <path id="路径_1640" data-name="路径 1640" class="cls-1" d="M405.432,9.312H402.7a.458.458,0,0,1-.318-.138.429.429,0,0,1-.121-.316V.454a.429.429,0,0,1,.121-.316A.458.458,0,0,1,402.7,0h2.729a.458.458,0,0,1,.318.138.429.429,0,0,1,.121.316v8.4a.429.429,0,0,1-.121.316.458.458,0,0,1-.318.138" transform="translate(-398.903)"/>
</svg>
